<mxfile host="app.diagrams.net" agent="Mozilla/5.0 (Windows NT 10.0; Win64; x64) AppleWebKit/537.36 (KHTML, like Gecko) Chrome/131.0.0.0 Safari/537.36" version="27.0.6">
  <diagram name="Trang-1" id="xRDySU8UgiZmNIAVLObl">
    <mxGraphModel grid="1" page="1" gridSize="10" guides="1" tooltips="1" connect="1" arrows="1" fold="1" pageScale="1" pageWidth="827" pageHeight="1169" math="0" shadow="0">
      <root>
        <mxCell id="0" />
        <mxCell id="1" parent="0" />
        <mxCell id="xSqhrbPGIQ5AdMwMVgo4-1" value="&lt;p style=&quot;margin:0px;margin-top:4px;text-align:center;&quot;&gt;&lt;i&gt;&amp;lt;&amp;lt;boundary&amp;gt;&amp;gt;&lt;/i&gt;&lt;br&gt;&lt;b&gt;LienHeUI&lt;/b&gt;&lt;/p&gt;&lt;hr size=&quot;1&quot;&gt;&lt;p style=&quot;&quot; dir=&quot;auto&quot;&gt;&lt;span style=&quot;white-space: pre-wrap;&quot;&gt;+ kich &quot;Lien he&quot; tren menu chinh()&lt;br/&gt;+ hien thi form lien he()&lt;br/&gt;+ kich nut &quot;Lien he&quot;()&lt;br/&gt;+ hien thi man hinh gui thanh cong()&lt;/span&gt;&lt;/p&gt;&lt;p style=&quot;white-space: pre-wrap;&quot; dir=&quot;auto&quot;&gt;&lt;br&gt;&lt;/p&gt;&lt;p style=&quot;white-space: pre-wrap;&quot; dir=&quot;auto&quot;&gt;&lt;br&gt;&lt;/p&gt;&lt;p style=&quot;margin:0px;margin-left:4px;&quot;&gt;&lt;br&gt;&lt;/p&gt;" style="verticalAlign=top;align=left;overflow=fill;fontSize=12;fontFamily=Helvetica;html=1;rounded=0;shadow=0;comic=0;labelBackgroundColor=none;strokeWidth=1;fillColor=#F2CC8F;strokeColor=#E07A5F;fontColor=#393C56;" vertex="1" parent="1">
          <mxGeometry x="189" y="60" width="260" height="120" as="geometry" />
        </mxCell>
        <mxCell id="xSqhrbPGIQ5AdMwMVgo4-3" value="&lt;p style=&quot;margin:0px;margin-top:4px;text-align:center;&quot;&gt;&lt;i&gt;&amp;lt;&amp;lt;Control&amp;gt;&amp;gt;&lt;/i&gt;&lt;br&gt;&lt;b&gt;LienHe&lt;/b&gt;&lt;b&gt;Controller&lt;/b&gt;&lt;/p&gt;&lt;hr size=&quot;1&quot;&gt;&lt;div&gt;+ tao thong tin lien he()&lt;/div&gt;&lt;div&gt;&lt;p style=&quot;white-space: pre-wrap;&quot; dir=&quot;auto&quot;&gt;&lt;br&gt;&lt;/p&gt;&lt;p style=&quot;white-space: pre-wrap;&quot; dir=&quot;auto&quot;&gt;&lt;br&gt;&lt;/p&gt;&lt;/div&gt;" style="verticalAlign=top;align=left;overflow=fill;fontSize=12;fontFamily=Helvetica;html=1;rounded=0;shadow=0;comic=0;labelBackgroundColor=none;strokeWidth=1;fillColor=#F2CC8F;strokeColor=#E07A5F;fontColor=#393C56;" vertex="1" parent="1">
          <mxGeometry x="549" y="60" width="240" height="70" as="geometry" />
        </mxCell>
        <mxCell id="xSqhrbPGIQ5AdMwMVgo4-4" value="&lt;b&gt;KhachHang&lt;/b&gt;" style="shape=umlActor;verticalLabelPosition=bottom;verticalAlign=top;html=1;outlineConnect=0;textShadow=0;labelBorderColor=none;labelBackgroundColor=none;fillColor=#F2CC8F;strokeColor=#E07A5F;fontColor=#393C56;" vertex="1" parent="1">
          <mxGeometry x="29" y="85" width="30" height="60" as="geometry" />
        </mxCell>
        <mxCell id="xSqhrbPGIQ5AdMwMVgo4-5" value="" style="endArrow=none;html=1;rounded=0;labelBackgroundColor=none;fontColor=default;strokeColor=#E07A5F;" edge="1" parent="1">
          <mxGeometry relative="1" as="geometry">
            <mxPoint x="69" y="111" as="sourcePoint" />
            <mxPoint x="189" y="110" as="targetPoint" />
          </mxGeometry>
        </mxCell>
        <mxCell id="xSqhrbPGIQ5AdMwMVgo4-6" value="1" style="text;html=1;align=center;verticalAlign=middle;resizable=0;points=[];autosize=1;strokeColor=none;fillColor=none;labelBackgroundColor=none;fontColor=#393C56;" vertex="1" parent="1">
          <mxGeometry x="519" y="85" width="30" height="30" as="geometry" />
        </mxCell>
        <mxCell id="xSqhrbPGIQ5AdMwMVgo4-7" value="" style="endArrow=none;html=1;rounded=0;labelBackgroundColor=none;fontColor=default;exitX=0.583;exitY=1;exitDx=0;exitDy=0;exitPerimeter=0;entryX=-0.027;entryY=1.027;entryDx=0;entryDy=0;entryPerimeter=0;strokeColor=#E07A5F;" edge="1" parent="1" source="xSqhrbPGIQ5AdMwMVgo4-3" target="xSqhrbPGIQ5AdMwMVgo4-19">
          <mxGeometry relative="1" as="geometry">
            <mxPoint x="700" y="192" as="sourcePoint" />
            <mxPoint x="689" y="230" as="targetPoint" />
          </mxGeometry>
        </mxCell>
        <mxCell id="xSqhrbPGIQ5AdMwMVgo4-9" value="&lt;p style=&quot;margin:0px;margin-top:4px;text-align:center;&quot;&gt;&lt;i&gt;&amp;lt;&amp;lt;entity&amp;gt;&lt;/i&gt;&lt;br&gt;&lt;b&gt;Contact&lt;/b&gt;&lt;/p&gt;&lt;hr size=&quot;1&quot;&gt;&lt;p style=&quot;&quot; dir=&quot;auto&quot;&gt;&lt;span style=&quot;white-space: pre-wrap;&quot;&gt;+ id&lt;br&gt;+ email&lt;br&gt;+ title&lt;br&gt;+ content&lt;br&gt;+ name&lt;br&gt;+ date&lt;/span&gt;&lt;/p&gt;&lt;hr size=&quot;1&quot;&gt;&lt;div&gt;&lt;div&gt;+ getId()&lt;/div&gt;&lt;div&gt;+ setId()&lt;/div&gt;&lt;div&gt;+ getEmail()&lt;/div&gt;&lt;div&gt;+ setEmail()&lt;/div&gt;&lt;div&gt;+ getTitle()&lt;/div&gt;&lt;div&gt;+ setTitle()&lt;/div&gt;&lt;div&gt;+ getName()&lt;/div&gt;&lt;div&gt;+ setName()&lt;/div&gt;&lt;div&gt;+ getDate()&lt;/div&gt;&lt;div&gt;+ setDate()&lt;/div&gt;&lt;div&gt;+ createContact()&lt;/div&gt;&lt;div&gt;+ getContact()&lt;/div&gt;&lt;div&gt;+ getContactById()&lt;/div&gt;&lt;div&gt;&lt;span style=&quot;background-color: transparent;&quot;&gt;+ deleteContactById()&lt;/span&gt;&lt;span style=&quot;background-color: transparent; color: light-dark(rgb(0, 0, 0), rgb(255, 255, 255));&quot;&gt;&amp;nbsp;&lt;/span&gt;&lt;/div&gt;&lt;/div&gt;&lt;div&gt;&lt;br&gt;&lt;/div&gt;&lt;div&gt;&lt;br&gt;&lt;p style=&quot;white-space: pre-wrap;&quot; dir=&quot;auto&quot;&gt;&lt;br&gt;&lt;/p&gt;&lt;/div&gt;" style="verticalAlign=top;align=left;overflow=fill;fontSize=12;fontFamily=Helvetica;html=1;rounded=0;shadow=0;comic=0;labelBackgroundColor=none;strokeWidth=1;fillColor=#F2CC8F;strokeColor=#E07A5F;fontColor=#393C56;" vertex="1" parent="1">
          <mxGeometry x="610" y="210" width="170" height="360" as="geometry" />
        </mxCell>
        <mxCell id="xSqhrbPGIQ5AdMwMVgo4-16" value="1" style="text;html=1;align=center;verticalAlign=middle;resizable=0;points=[];autosize=1;strokeColor=none;fillColor=none;labelBackgroundColor=none;fontColor=#393C56;" vertex="1" parent="1">
          <mxGeometry x="680" y="130" width="30" height="30" as="geometry" />
        </mxCell>
        <mxCell id="xSqhrbPGIQ5AdMwMVgo4-19" value="n" style="text;html=1;align=center;verticalAlign=middle;resizable=0;points=[];autosize=1;strokeColor=none;fillColor=none;labelBackgroundColor=none;fontColor=#393C56;" vertex="1" parent="1">
          <mxGeometry x="690" y="180" width="30" height="30" as="geometry" />
        </mxCell>
        <mxCell id="xSqhrbPGIQ5AdMwMVgo4-20" value="" style="endArrow=none;html=1;rounded=0;labelBackgroundColor=none;fontColor=default;strokeColor=#E07A5F;" edge="1" parent="1">
          <mxGeometry relative="1" as="geometry">
            <mxPoint x="449" y="111" as="sourcePoint" />
            <mxPoint x="549" y="110" as="targetPoint" />
          </mxGeometry>
        </mxCell>
        <mxCell id="xSqhrbPGIQ5AdMwMVgo4-21" value="1" style="text;html=1;align=center;verticalAlign=middle;resizable=0;points=[];autosize=1;strokeColor=none;fillColor=none;labelBackgroundColor=none;fontColor=#393C56;" vertex="1" parent="1">
          <mxGeometry x="449" y="85" width="30" height="30" as="geometry" />
        </mxCell>
      </root>
    </mxGraphModel>
  </diagram>
</mxfile>
